<svg width="32px" height="32px" viewBox="0 0 32 32" version="1.1" xmlns="http://www.w3.org/2000/svg" xmlns:xlink="http://www.w3.org/1999/xlink">
    <!-- Generator: Sketch 3.8.3 (29802) - http://www.bohemiancoding.com/sketch -->
    <title>Slice 1</title>
    <desc>Created with Sketch.</desc>
    <defs>
        <linearGradient x1="61.2346759%" y1="43.69%" x2="74.7064382%" y2="80.24%" id="linearGradient-1">
            <stop stop-color="#EFF7FC" offset="0%"></stop>
            <stop stop-color="#FFFFFF" offset="100%"></stop>
        </linearGradient>
    </defs>
    <g id="Page-1" stroke="none" stroke-width="1" fill="none" fill-rule="evenodd">
        <g id="Telegram_logo" transform="translate(-7.000000, -10.000000)">
            <path d="M20.0083333,35.7291667 C19.214615,35.7291667 19.3494875,35.4294704 19.0757408,34.6737271 L16.7416667,26.9920379 L34.7083333,16.3333333" id="Shape" fill="#C8DAEA"></path>
            <path d="M20.0083333,35.7291667 C20.6208333,35.7291667 20.8914562,35.44905 21.2333333,35.1166667 L24.5,31.9402417 L20.4252417,29.4830958" id="Shape" fill="#A9C9DD"></path>
            <path d="M20.4248333,29.4837083 L30.2983333,36.7783792 C31.4250271,37.4000463 32.2382025,37.0781775 32.51885,35.7323313 L36.5378708,16.7932188 C36.9493483,15.1435113 35.9090171,14.3952813 34.83116,14.8846279 L11.231535,23.9845404 C9.62063958,24.6306667 9.63003125,25.5293879 10.9379025,25.9298404 L16.9940983,27.8200767 L31.0148358,18.9745558 C31.6767237,18.5731846 32.2842012,18.7889704 31.7856058,19.2314792" id="Shape" fill="url(#linearGradient-1)"></path>
        </g>
    </g>
</svg>