<svg class="logo__svg" version="1.1" id="Слой_1" xmlns="http://www.w3.org/2000/svg" xmlns:xlink="http://www.w3.org/1999/xlink" x="0px" y="0px"
					 viewBox="0 0 235.276 154.806" enable-background="new 0 0 235.276 154.806"
					 xml:space="preserve">
				<g>
					<g>
						<path d="M22.491,70.585h-8.659c-5.386,0-9.069-1.593-11.05-4.782c-1.293-2.11-1.939-5.234-1.939-9.37V25.352h9.563v30.63
							c0,2.413,0.646,3.985,1.939,4.717c0.689,0.388,2.046,0.582,4.071,0.582h6.074V70.585z"/>
						<path d="M37.418,29.81c0,1.465-0.507,2.704-1.518,3.716c-1.013,1.013-2.252,1.518-3.716,1.518c-1.465,0-2.704-0.505-3.715-1.518
							c-1.013-1.012-1.519-2.25-1.519-3.716c0-1.464,0.506-2.702,1.519-3.715c1.011-1.012,2.251-1.519,3.715-1.519
							c1.464,0,2.703,0.507,3.716,1.519C36.911,27.108,37.418,28.346,37.418,29.81z M36.319,70.585h-8.271V39.18h8.271V70.585z"/>
						<path d="M86.658,70.585h-8.271V51.652c0-1.809-0.539-3.188-1.615-4.136c-0.819-0.732-1.809-1.099-2.973-1.099
							c-1.121,0-2.068,0.323-2.843,0.969c-1.206,0.991-1.809,2.649-1.809,4.975v18.223h-8.271V52.362c0-2.283-0.604-3.919-1.809-4.911
							c-0.819-0.689-1.767-1.034-2.843-1.034c-1.121,0-2.09,0.366-2.908,1.099c-1.121,0.991-1.68,2.369-1.68,4.136v18.933h-8.271V51.523
							c0-2.585,0.259-4.588,0.776-6.01c0.861-2.326,2.52-4.178,4.976-5.557c1.895-1.034,3.919-1.551,6.074-1.551
							c1.852,0,3.608,0.366,5.267,1.099c1.658,0.733,3.176,1.982,4.555,3.748c1.293-1.68,2.789-2.908,4.491-3.684
							c1.701-0.775,3.478-1.163,5.331-1.163c2.239,0,4.265,0.517,6.074,1.551c2.498,1.379,4.156,3.21,4.975,5.493
							c0.517,1.421,0.776,3.447,0.776,6.074V70.585z"/>
						<path d="M124.653,57.209c-0.689,4.394-2.713,7.906-6.073,10.533c-3.059,2.369-6.57,3.554-10.533,3.554
							c-4.653,0-8.562-1.58-11.728-4.741c-3.166-3.16-4.749-7.062-4.749-11.705c0-4.643,1.583-8.545,4.749-11.705
							c3.166-3.16,7.076-4.741,11.728-4.741c3.317,0,6.278,0.806,8.885,2.416c2.606,1.61,4.62,3.897,6.042,6.86L107.013,59.6
							l-4.007-5.209l8.206-6.302c-0.474-0.557-1.077-0.975-1.809-1.254c-0.733-0.279-1.486-0.418-2.261-0.418
							c-2.026,0-3.748,0.804-5.17,2.414c-1.421,1.609-2.132,3.595-2.132,5.954c0,2.618,0.947,4.743,2.843,6.373
							c1.68,1.416,3.575,2.124,5.687,2.124c1.939,0,3.651-0.635,5.137-1.906c1.486-1.27,2.423-2.961,2.811-5.072L124.653,57.209z"/>
						<path d="M27.984,140.59h-4.782c-5.299,0-9.909-1.357-13.828-4.071c-2.714-1.895-4.934-4.286-6.656-7.173
							c-2.025-3.446-3.037-7.238-3.037-11.373c0-1.939,0.258-3.898,0.775-5.88c0.517-1.981,1.27-3.812,2.262-5.493
							c1.722-2.886,3.942-5.277,6.656-7.173c3.919-2.714,8.53-4.071,13.828-4.071h4.782v9.047h-4.782c-3.964,0-7.281,1.293-9.952,3.877
							c-2.671,2.585-4.006,5.816-4.006,9.693c0,3.877,1.335,7.109,4.006,9.693c2.671,2.585,5.988,3.877,9.952,3.877h4.782V140.59z"/>
						<path d="M42.393,140.59h-8.271V95.356h8.271V140.59z"/>
						<path d="M80.388,127.214c-0.69,4.394-2.714,7.906-6.074,10.533c-3.059,2.369-6.57,3.554-10.533,3.554
							c-4.652,0-8.562-1.58-11.728-4.741c-3.166-3.16-4.75-7.062-4.75-11.706c0-4.643,1.583-8.545,4.75-11.705
							c3.166-3.16,7.076-4.741,11.728-4.741c3.317,0,6.278,0.806,8.885,2.416c2.606,1.61,4.62,3.897,6.042,6.86l-15.961,11.918
							l-4.007-5.209l8.207-6.302c-0.474-0.557-1.077-0.975-1.809-1.254c-0.733-0.279-1.486-0.418-2.261-0.418
							c-2.026,0-3.748,0.805-5.17,2.414c-1.421,1.609-2.132,3.595-2.132,5.954c0,2.618,0.947,4.743,2.843,6.373
							c1.68,1.416,3.575,2.125,5.687,2.125c1.939,0,3.651-0.636,5.137-1.907c1.486-1.27,2.423-2.961,2.811-5.072L80.388,127.214z"/>
						<path d="M117.221,140.59h-8.271v-13.248c0-3.015-0.431-5.363-1.292-7.044c-1.293-2.585-3.554-3.877-6.785-3.877
							c-2.37,0-4.329,0.795-5.88,2.382c-1.551,1.588-2.326,3.669-2.326,6.244c0,2.103,0.602,3.905,1.809,5.408
							c1.507,1.888,3.812,2.833,6.914,2.833c1.335,0,2.369-0.124,3.102-0.371c0.732-0.248,1.357-0.598,1.874-1.051v8.215
							c-0.904,0.385-1.842,0.684-2.811,0.898c-0.969,0.215-2.035,0.322-3.198,0.322c-4.222,0-7.862-1.375-10.921-4.128
							c-3.36-3.009-5.04-6.922-5.04-11.738c0-4.429,1.422-8.276,4.265-11.545c3.188-3.655,7.323-5.482,12.407-5.482
							c4.049,0,7.473,1.121,10.274,3.36c3.92,3.146,5.88,8.142,5.88,14.992V140.59z"/>
						<path d="M149.143,140.59h-8.271v-17.835c0-1.637-0.238-2.95-0.711-3.942c-0.775-1.593-2.111-2.391-4.007-2.391
							c-1.852,0-3.165,0.775-3.942,2.326c-0.517,1.077-0.775,2.413-0.775,4.006v17.835h-8.271v-16.672c0-3.36,0.258-5.837,0.775-7.431
							c0.861-2.714,2.671-4.847,5.429-6.397c1.034-0.559,2.1-0.98,3.198-1.26c1.099-0.28,2.294-0.42,3.586-0.42
							c2.542,0,4.804,0.56,6.785,1.68c2.714,1.551,4.501,3.662,5.363,6.333c0.559,1.723,0.841,4.222,0.841,7.496V140.59z"/>
						<path d="M165.555,99.815c0,1.465-0.507,2.704-1.519,3.716c-1.012,1.013-2.252,1.518-3.715,1.518c-1.465,0-2.704-0.506-3.716-1.518
							c-1.013-1.012-1.519-2.25-1.519-3.716c0-1.464,0.506-2.703,1.519-3.715c1.012-1.012,2.251-1.519,3.716-1.519
							c1.463,0,2.703,0.507,3.715,1.519C165.048,97.112,165.555,98.351,165.555,99.815z M164.457,140.59h-8.271v-31.406h8.271V140.59z"
							/>
						<path d="M197.477,140.59h-8.271v-17.835c0-1.637-0.238-2.95-0.711-3.942c-0.775-1.593-2.111-2.391-4.007-2.391
							c-1.853,0-3.165,0.775-3.942,2.326c-0.517,1.077-0.775,2.413-0.775,4.006v17.835H171.5v-16.672c0-3.36,0.258-5.837,0.775-7.431
							c0.861-2.714,2.671-4.847,5.429-6.397c1.034-0.559,2.1-0.98,3.198-1.26c1.099-0.28,2.294-0.42,3.586-0.42
							c2.542,0,4.804,0.56,6.785,1.68c2.714,1.551,4.501,3.662,5.363,6.333c0.559,1.723,0.841,4.222,0.841,7.496V140.59z"/>
						<path d="M234.956,137.036c0,3.274-0.217,5.729-0.647,7.366c-0.733,2.8-2.261,5.127-4.588,6.979
							c-1.68,1.335-3.77,2.283-6.268,2.844c-1.723,0.387-3.597,0.581-5.622,0.581c-2.413,0-4.696-0.216-6.85-0.647
							c-1.292-0.258-2.563-0.603-3.812-1.034v-8.013c2.197,0.603,4.113,1.035,5.751,1.293c1.637,0.258,3.038,0.387,4.2,0.387
							c1.378,0,2.498-0.086,3.36-0.258c1.422-0.302,2.67-0.916,3.749-1.842c1.076-0.927,1.787-2.144,2.132-3.651
							c0.216-0.947,0.324-2.369,0.324-4.265v-9.887c0-1.852-0.065-3.145-0.194-3.877c-0.258-1.464-0.841-2.756-1.745-3.877
							c-1.465-1.809-3.425-2.714-5.88-2.714c-2.156,0-4.039,0.743-5.654,2.229c-1.616,1.486-2.424,3.479-2.424,5.977
							c0,1.638,0.377,3.081,1.132,4.33c0.752,1.249,1.712,2.164,2.875,2.746c1.163,0.582,2.434,0.872,3.813,0.872
							c1.292,0,2.368-0.204,3.231-0.614c0.861-0.409,1.615-1.002,2.261-1.777v8.271c-0.991,0.775-2.014,1.325-3.069,1.648
							c-1.056,0.324-2.079,0.485-3.069,0.485c-2.629,0-5.084-0.624-7.366-1.874c-2.499-1.378-4.47-3.273-5.913-5.687
							c-1.444-2.412-2.165-5.169-2.165-8.271c0-4.221,1.357-7.884,4.071-10.985c3.102-3.575,7.258-5.363,12.471-5.363
							c2.715,0,5.17,0.539,7.367,1.615c1.679,0.819,3.123,1.896,4.329,3.231c1.723,1.896,2.908,4.2,3.554,6.914
							c0.43,1.853,0.647,4.265,0.647,7.238V137.036z"/>
					</g>
					<path fill="#6DB85C" d="M189.24,0c-24.887,0-45.062,20.175-45.062,45.062c0,24.887,20.175,45.062,45.062,45.062
						c24.887,0,45.062-20.175,45.062-45.062C234.302,20.175,214.127,0,189.24,0z M189.24,87.297c-23.326,0-42.236-18.91-42.236-42.236
						s18.91-42.236,42.236-42.236s42.236,18.91,42.236,42.236S212.567,87.297,189.24,87.297z"/>
					<path fill="#6DB85C" d="M227.861,70.661c0,0-6.414,9.505-6.414,13.048s2.872,6.414,6.414,6.414c3.542,0,6.414-2.872,6.414-6.414
						S227.861,70.661,227.861,70.661z M227.861,87.964c-0.654,0-1.277-0.129-1.849-0.358c3.469-0.085,6.256-2.917,6.256-6.406
						c0-0.195-0.023-0.41-0.059-0.638c0.386,0.944,0.643,1.796,0.643,2.412C232.852,85.729,230.617,87.964,227.861,87.964z"/>
					<path fill="#6DB85C" d="M188.574,39.732l0.012-28.468c0,0-0.238-2.267-1.099-3.128c-1.293-1.294-2.559-1.61-4.373-1.341
						c-5.706,0.846-11.252,3.026-16.136,6.54c-1.603,1.153-2.411,2.669-2.412,4.708c-0.001,1.28,1.454,2.805,1.454,2.805l19.939,19.956
						C186.703,40.23,187.594,39.854,188.574,39.732z"/>
					<path fill="#6DB85C" d="M184.997,41.764l-20.127-20.127c0,0-1.772-1.434-2.99-1.434c-1.83,0-2.947,0.673-4.039,2.146
						c-3.435,4.634-5.813,10.098-6.779,16.037c-0.317,1.949,0.184,3.592,1.626,5.034c0.905,0.905,3.012,0.954,3.012,0.954h28.214
						C184.039,43.395,184.419,42.505,184.997,41.764z"/>
					<path fill="#6DB85C" d="M183.911,45.728l-28.468-0.012c0,0-2.267,0.238-3.128,1.099c-1.294,1.293-1.61,2.559-1.341,4.373
						c0.846,5.706,3.026,11.252,6.54,16.136c1.153,1.603,2.669,2.411,4.708,2.412c1.28,0.001,2.805-1.454,2.805-1.454l19.956-19.939
						C184.408,47.599,184.033,46.707,183.911,45.728z"/>
					<path fill="#6DB85C" d="M185.942,49.305l-20.127,20.127c0,0-1.434,1.772-1.434,2.99c0,1.83,0.673,2.948,2.146,4.039
						c4.634,3.435,10.098,5.813,16.037,6.778c1.949,0.317,3.592-0.184,5.034-1.626c0.905-0.905,0.954-3.012,0.954-3.012V50.389
						C187.573,50.263,186.684,49.883,185.942,49.305z"/>
					<path fill="#6DB85C" d="M212.461,69.275l-19.939-19.956c-0.744,0.574-1.635,0.95-2.614,1.072l-0.012,28.468
						c0,0,0.238,2.267,1.099,3.128c1.293,1.294,2.559,1.61,4.373,1.341c5.706-0.846,11.252-3.026,16.136-6.54
						c1.603-1.153,2.411-2.669,2.412-4.708C213.915,70.801,212.461,69.275,212.461,69.275z"/>
					<path fill="#6DB85C" d="M225.793,46.704c-0.905-0.905-3.012-0.955-3.012-0.955h-28.214c-0.126,0.978-0.506,1.868-1.084,2.609
						l20.127,20.127c0,0,1.772,1.434,2.99,1.434c1.83,0,2.948-0.673,4.039-2.146c3.435-4.634,5.813-10.098,6.778-16.037
						C227.736,49.789,227.235,48.146,225.793,46.704z"/>
					<path fill="#6DB85C" d="M227.507,38.935c-0.846-5.706-3.026-11.252-6.54-16.136c-1.153-1.603-2.669-2.411-4.708-2.412
						c-1.28-0.001-2.805,1.454-2.805,1.454l-19.956,19.939c0.574,0.744,0.95,1.635,1.072,2.614l28.468,0.012
						c0,0,2.267-0.238,3.128-1.099C227.461,42.015,227.776,40.749,227.507,38.935z"/>
					<path fill="#6DB85C" d="M211.954,13.661c-4.634-3.435-10.098-5.813-16.037-6.779c-1.949-0.317-3.592,0.184-5.034,1.626
						c-0.905,0.905-0.954,3.012-0.954,3.012v28.214c0.978,0.126,1.868,0.506,2.61,1.084l20.127-20.127c0,0,1.434-1.772,1.434-2.99
						C214.1,15.871,213.427,14.753,211.954,13.661z"/>
				</g>
				</svg>